<svg version="1.1" id="Layer_1" xmlns="http://www.w3.org/2000/svg" x="0" y="0" viewBox="0 0 128 128" xml:space="preserve" enable-background="new 0 0 128 128" width="128" height="128"><title>pantry</title><g class="nc-icon-wrapper"><path class="st1" d="M120.438 67.355h-5.333l-.317-8.283c2.288-.176 4.102-2.074 4.102-4.407a4.445 4.445 0 0 0-4.44-4.44l-.031-.813v-.984a1 1 0 0 0-1-1h-10.746a1.856 1.856 0 0 0-1.854 1.854c0 .985.772 1.794 1.744 1.852l-.619 16.222h-4.546c.003-.055.016-.109.016-.164V46.707a2.707 2.707 0 0 0-2.704-2.704H59.987a2.707 2.707 0 0 0-2.704 2.704v20.484c0 .055.012.109.016.164h-5.408V39.217h68.542a3.354 3.354 0 0 0 3.351-3.351 3.354 3.354 0 0 0-3.351-3.35h-1.067c.079-.259.134-.528.134-.813 0-.69-.26-1.315-.676-1.804a2.78 2.78 0 0 0 .676-1.804 2.808 2.808 0 0 0-2.805-2.805H94.996a2.808 2.808 0 0 0-2.804 2.805c0 .69.26 1.315.676 1.804a2.78 2.78 0 0 0-.676 1.804c0 .284.055.554.134.813h-2.67c.154-.375.242-.783.242-1.213v-8.679a4.765 4.765 0 0 0-1.192-3.135c.747-.474 1.26-1.369 1.26-2.406 0-1.526-1.098-2.769-2.446-2.769h-.087v-1.93c0-1.526-1.097-2.769-2.445-2.769s-2.446 1.242-2.446 2.769v1.93h-.308c-1.349 0-2.446 1.242-2.446 2.769 0 1.037.512 1.932 1.26 2.406-.732.844-1.192 1.932-1.192 3.135v8.679c0 .43.088.838.242 1.213h-3.419a5.494 5.494 0 0 0 1.271-3.519c0-.72-.155-1.434-.439-2.106a3.107 3.107 0 0 0 .838-2.114 3.13 3.13 0 0 0-3.126-3.126h-5.581a3.13 3.13 0 0 0-3.126 3.126c0 .817.322 1.556.838 2.114a5.396 5.396 0 0 0-.439 2.106c0 1.336.478 2.563 1.271 3.519H51.891v-.32a3.961 3.961 0 0 0-3.957-3.957H11.175a3.961 3.961 0 0 0-3.957 3.957v85.229a3.961 3.961 0 0 0 3.957 3.957h36.759a3.935 3.935 0 0 0 2.97-1.37 3.98 3.98 0 0 0 2.992 1.37h65.23a4.008 4.008 0 0 0 4.004-4.004V75.076c.38-.142.653-.5.653-.93V70.7c0-1.845-1.5-3.345-3.345-3.345zm-3.546-12.69a2.435 2.435 0 0 1-2.178 2.415l-.185-4.848a2.44 2.44 0 0 1 2.363 2.433z" style="" fill="#E6E7E8"/><path class="st3" d="M116.433 29.516H47v4.7h69.432a2.35 2.35 0 0 0 .001-4.7z" style="" fill="#FA759E"/><path class="st5" d="M91.948 64.356c.287-.305.465-.713.465-1.164V42.707c0-.941-.763-1.704-1.704-1.704H55.987c-.941 0-1.704.763-1.704 1.704v20.485c0 .451.179.859.465 1.164h37.2z" style="" fill="#6DC9F7"/><path transform="rotate(90 70.876 52.95)" class="st6" d="M64.24 41.666h13.273v22.566H64.24z" style="" fill="#D4FBFF"/><path class="st6" d="M110.145 64.375l-.725-18.963v-.984H98.674a.854.854 0 0 0 0 1.708h.929l-.696 18.238h11.238z" style="" fill="#D4FBFF"/><path class="st3" d="M46.891 70.15v43.229a3.004 3.004 0 0 0 3.004 3.004h65.23a3.004 3.004 0 0 0 3.004-3.004V70.15H46.891z" style="" fill="#FA759E"/><path class="st3" d="M116.438 64.356H46.891v5.79h71.892V66.7a2.344 2.344 0 0 0-2.345-2.344z" style="" fill="#FA759E"/><g><path class="st4" d="M43.934 25.239H7.174a2.957 2.957 0 0 0-2.957 2.957v85.23a2.957 2.957 0 0 0 2.957 2.957h36.76a2.957 2.957 0 0 0 2.957-2.957v-85.23a2.957 2.957 0 0 0-2.957-2.957z" style="" fill="#FFFFFF"/><path class="st5" d="M43.934 28.239H7.174a2.957 2.957 0 0 0-2.957 2.957v82.23a2.957 2.957 0 0 0 2.957 2.957h36.76a2.957 2.957 0 0 0 2.957-2.957v-82.23a2.957 2.957 0 0 0-2.957-2.957z" style="" fill="#6DC9F7"/><path class="st6" d="M46.891 60.17v-1.458a.765.765 0 0 0-.266-.054H5.017a.783.783 0 1 0 0 1.566h41.607a.766.766 0 0 0 .267-.054z" style="" fill="#D4FBFF"/><path class="st3" d="M40.227 35.951a2.399 2.399 0 0 0-2.399 2.399v11.995a2.399 2.399 0 1 0 4.798 0V38.35a2.399 2.399 0 0 0-2.399-2.399z" style="" fill="#FA759E"/><path class="st3" d="M40.227 67.404a2.399 2.399 0 0 0-2.399 2.399v11.995a2.399 2.399 0 1 0 4.798 0V69.803a2.399 2.399 0 0 0-2.399-2.399z" style="" fill="#FA759E"/></g><g><path class="st2" d="M71.223 22.905h-5.581c-.377 0-.727-.107-1.034-.279a4.466 4.466 0 0 0-.693 2.373c0 2.485 2.033 4.518 4.518 4.518s4.518-2.033 4.518-4.518c0-.872-.261-1.681-.693-2.373a2.118 2.118 0 0 1-1.035.279z" style="" fill="#FFD7E5"/><path class="st5" d="M71.223 22.905h-5.581a2.126 2.126 0 0 1 0-4.252h5.581a2.126 2.126 0 0 1 0 4.252z" style="" fill="#6DC9F7"/><path class="st2" d="M83.662 15.836c-.048.003-.093.016-.141.016h-5.286c-.048 0-.093-.013-.141-.016a3.791 3.791 0 0 0-1.237 2.789v8.679c0 1.209.989 2.198 2.198 2.198h3.646a2.204 2.204 0 0 0 2.198-2.198v-8.679a3.791 3.791 0 0 0-1.237-2.789z" style="" fill="#FFD7E5"/><path class="st5" d="M83.521 11.315h-1.087V8.386c0-.978-.647-1.769-1.446-1.769s-1.446.791-1.446 1.769v2.929h-1.308c-.799 0-1.446.791-1.446 1.769s.647 1.769 1.446 1.769h5.287c.799 0 1.446-.791 1.446-1.769s-.647-1.769-1.446-1.769z" style="" fill="#6DC9F7"/><path class="st6" d="M112.696 25.9H90.997a1.81 1.81 0 0 0-1.804 1.804 1.81 1.81 0 0 0 1.804 1.804h21.699a1.81 1.81 0 0 0 1.804-1.804 1.81 1.81 0 0 0-1.804-1.804z" style="" fill="#D4FBFF"/><g><path class="st6" d="M112.696 22.291H90.997a1.81 1.81 0 0 0-1.804 1.804 1.81 1.81 0 0 0 1.804 1.804h21.699a1.81 1.81 0 0 0 1.804-1.804 1.81 1.81 0 0 0-1.804-1.804z" style="" fill="#D4FBFF"/><path class="st0" d="M82.16 45.313H59.594a1 1 0 0 0-1 1v13.273a1 1 0 0 0 1 1H82.16a1 1 0 0 0 1-1V46.313a1 1 0 0 0-1-1zm-1 13.273H60.594V47.313H81.16v11.273z" style="" fill="#3A2C60"/><path class="st0" d="M87.352 47.718a2.086 2.086 0 1 0 0 4.172 2.086 2.086 0 0 0 0-4.172z" style="" fill="#3A2C60"/><path class="st0" d="M87.352 54.009a2.086 2.086 0 1 0 0 4.172 2.086 2.086 0 0 0 0-4.172z" style="" fill="#3A2C60"/><path class="st0" d="M116.438 63.355h-5.333l-.317-8.283c2.288-.176 4.102-2.074 4.102-4.407a4.445 4.445 0 0 0-4.44-4.44l-.031-.813v-.984a1 1 0 0 0-1-1H98.674a1.856 1.856 0 0 0-1.854 1.854c0 .985.772 1.794 1.744 1.852l-.619 16.222h-4.546c.003-.055.016-.109.016-.164V42.707a2.707 2.707 0 0 0-2.704-2.704H55.987a2.707 2.707 0 0 0-2.704 2.704v20.484c0 .055.012.109.016.164h-5.408V35.217h68.542a3.354 3.354 0 0 0 3.351-3.351 3.354 3.354 0 0 0-3.351-3.35h-1.067c.079-.259.134-.528.134-.813 0-.69-.26-1.315-.676-1.804a2.78 2.78 0 0 0 .676-1.804 2.808 2.808 0 0 0-2.805-2.805H90.996a2.808 2.808 0 0 0-2.804 2.805c0 .69.26 1.315.676 1.804a2.78 2.78 0 0 0-.676 1.804c0 .284.055.554.134.813h-2.67c.154-.375.242-.783.242-1.213v-8.679a4.765 4.765 0 0 0-1.192-3.135c.747-.474 1.26-1.369 1.26-2.406 0-1.526-1.098-2.769-2.446-2.769h-.087v-1.93c0-1.526-1.097-2.769-2.445-2.769s-2.446 1.242-2.446 2.769v1.93h-.308c-1.349 0-2.446 1.242-2.446 2.769 0 1.037.512 1.932 1.26 2.406-.732.844-1.192 1.932-1.192 3.135v8.679c0 .43.088.838.242 1.213h-3.419a5.494 5.494 0 0 0 1.271-3.519c0-.72-.155-1.434-.439-2.106a3.107 3.107 0 0 0 .838-2.114 3.13 3.13 0 0 0-3.126-3.126h-5.581a3.13 3.13 0 0 0-3.126 3.126c0 .817.322 1.556.838 2.114a5.396 5.396 0 0 0-.439 2.106c0 1.336.478 2.563 1.271 3.519H47.891v-.32a3.961 3.961 0 0 0-3.957-3.957H7.175a3.961 3.961 0 0 0-3.957 3.957v46.891a1 1 0 1 0 2 0V28.196a1.96 1.96 0 0 1 1.957-1.957h36.759a1.96 1.96 0 0 1 1.957 1.957v85.23a1.96 1.96 0 0 1-1.957 1.957H7.175a1.96 1.96 0 0 1-1.957-1.957V90.254a1 1 0 1 0-2 0v23.172a3.961 3.961 0 0 0 3.957 3.957h36.759a3.935 3.935 0 0 0 2.97-1.37 3.98 3.98 0 0 0 2.992 1.37h65.23a4.008 4.008 0 0 0 4.004-4.004V71.076c.38-.142.653-.5.653-.93V66.7c0-1.845-1.5-3.345-3.345-3.345zM90.996 26.9h21.699a.806.806 0 0 1 0 1.609H90.996a.806.806 0 0 1 0-1.609zm0-3.609h21.699a.805.805 0 0 1 0 1.609H90.996a.805.805 0 0 1 0-1.609zm-13.14-4.666a2.806 2.806 0 0 1 2.426-2.772h1.191a2.808 2.808 0 0 1 2.426 2.772v8.679c0 .661-.537 1.198-1.198 1.198h-3.646a1.199 1.199 0 0 1-1.198-1.198v-8.679zm6.262-2.866c.023-.007.045-.017.068-.024-.023.008-.045.017-.068.024zm-5.884-3.444h1.308a1 1 0 0 0 1-1v-2.93c0-.469.265-.769.446-.769s.445.3.445.769v2.93a1 1 0 0 0 1 1h1.087c.182 0 .446.3.446.769s-.265.769-.446.769h-2.047c-.13-.01-.254-.039-.386-.039h-.419c-.132 0-.257.029-.386.039h-2.047c-.182 0-.446-.3-.446-.769s.264-.769.445-.769zm-.597 3.444c-.023-.007-.045-.016-.068-.024.023.008.045.018.068.024zm-11.995 3.893h5.581a1.127 1.127 0 0 1 0 2.252h-5.581a1.127 1.127 0 0 1 0-2.252zm-.728 5.346c0-.385.068-.77.201-1.14.173.03.349.046.526.046h5.581c.178 0 .354-.016.526-.046.133.37.201.755.201 1.14a3.523 3.523 0 0 1-3.518 3.519 3.522 3.522 0 0 1-3.517-3.519zM48 30.517h68.433a1.352 1.352 0 0 1 0 2.701H48v-2.701zm-.109 40.633h33.101v8.319H47.891V71.15zm35.1 0h34.139v8.319H82.991V71.15zm29.901-20.485a2.435 2.435 0 0 1-2.178 2.415l-.185-4.848a2.44 2.44 0 0 1 2.363 2.433zm-12.569-5.222l-.016-.016h8.113l.684 17.928h-9.159l.656-17.181a.995.995 0 0 0-.278-.731zm-45.04 17.748V42.707c0-.389.315-.704.704-.704H90.71c.389 0 .704.315.704.704v20.484c0 .056-.007.11-.021.164h-36.09a.688.688 0 0 1-.02-.164zm-.534 2.164H98.81c.033.003.063.02.096.02h11.238c.033 0 .063-.016.096-.02h6.198c.741 0 1.345.604 1.345 1.345v2.445H47.891v-3.79h6.858zm-6.858 48.024V81.47h33.167a.998.998 0 0 0-.066.328v33.585H49.896c-1.106 0-2.005-.9-2.005-2.004zm67.235 2.004H82.991V81.798a.998.998 0 0 0-.066-.328h34.205v31.909c0 1.104-.9 2.004-2.004 2.004z" style="" fill="#3A2C60"/><path class="st0" d="M4.218 85.697a1 1 0 0 0 1-1v-5.146a1 1 0 1 0-2 0v5.146a1 1 0 0 0 1 1z" style="" fill="#3A2C60"/><path class="st0" d="M40.228 53.744a3.402 3.402 0 0 0 3.398-3.399V38.351c0-1.874-1.524-3.399-3.398-3.399s-3.399 1.525-3.399 3.399v11.994a3.402 3.402 0 0 0 3.399 3.399zm-1.4-15.393c0-.771.628-1.399 1.399-1.399s1.398.628 1.398 1.399v11.994c0 .771-.627 1.399-1.398 1.399s-1.399-.628-1.399-1.399V38.351z" style="" fill="#3A2C60"/><path class="st0" d="M36.828 81.798c0 1.874 1.525 3.398 3.399 3.398s3.398-1.524 3.398-3.398V69.803c0-1.874-1.524-3.398-3.398-3.398s-3.399 1.524-3.399 3.398v11.995zm2-11.995a1.4 1.4 0 0 1 2.797 0v11.995a1.4 1.4 0 0 1-2.797 0V69.803z" style="" fill="#3A2C60"/><path class="st0" d="M67.704 74.702h-6.91a1 1 0 1 0 0 2h6.91a1 1 0 1 0 0-2z" style="" fill="#3A2C60"/><path class="st0" d="M103.049 74.702h-6.91a1 1 0 1 0 0 2h6.91a1 1 0 1 0 0-2z" style="" fill="#3A2C60"/><path class="st0" d="M77.251 94.806a2.51 2.51 0 1 0-.001 5.021 2.51 2.51 0 0 0 .001-5.021z" style="" fill="#3A2C60"/><path class="st0" d="M86.311 94.806a2.51 2.51 0 1 0 0 5.02 2.51 2.51 0 0 0 0-5.02z" style="" fill="#3A2C60"/></g></g></g></svg>